<?xml version="1.0" encoding="utf-8"?>
<!-- Generator: Adobe Illustrator 28.3.0, SVG Export Plug-In . SVG Version: 6.00 Build 0)  -->
<svg version="1.1" id="Capa_1" xmlns="http://www.w3.org/2000/svg" xmlns:xlink="http://www.w3.org/1999/xlink" x="0px" y="0px"
	 viewBox="0 0 151 50" style="enable-background:new 0 0 151 50;" xml:space="preserve">
<style type="text/css">
	.st0{fill:#214190;}
	.st1{fill:#254492;}
</style>
<g>
	<path class="st0" d="M0,3.85c2.27-1.27,4.5-2.52,6.72-3.77c0.18-0.1,0.38-0.07,0.57-0.07c7.88,0,15.76,0,23.65-0.01
		c0.33,0,0.6,0.09,0.88,0.25c7.09,4.04,14.19,8.07,21.28,12.11c0.39,0.22,0.71,0.26,1.15,0.12c5.35-1.72,10.71-3.41,16.06-5.12
		c0.47-0.15,0.89-0.17,1.37-0.06c2.33,0.56,4.67,1.11,7.01,1.64c0.39,0.09,0.64,0.25,0.82,0.63c0.52,1.11,1.08,2.2,1.67,3.39
		c-1.23-0.07-2.38-0.08-3.51-0.2c-0.94-0.11-1.67,0.07-2.43,0.73c-2.51,2.2-5.11,4.32-7.68,6.46c-0.3,0.25-0.55,0.54-0.76,0.88
		c-2.17,3.53-4.35,7.05-6.51,10.58c-0.19,0.3-0.41,0.47-0.75,0.57c-9.76,2.85-19.52,5.7-29.27,8.55c-0.25,0.07-0.47,0.18-0.69,0.31
		c-5.03,3-10.07,6-15.1,9.01c-0.33,0.2-0.49,0.25-0.64-0.19c-1.56-4.62-3.13-9.25-4.72-13.86c-0.2-0.57-0.03-0.63,0.48-0.67
		c4.85-0.3,9.71-0.62,14.56-0.93c0.27-0.02,0.43-0.14,0.59-0.32c3.28-3.73,6.55-7.47,9.84-11.18c0.3-0.34,0.21-0.46-0.11-0.68
		c-4.54-3.05-9.07-6.12-13.6-9.18c-2.51-1.7-5.02-3.38-7.53-5.09c-0.3-0.2-0.6-0.34-0.95-0.44C8.39,6.21,4.39,5.11,0.38,4
		C0.27,3.97,0.16,3.92,0,3.85z"/>
	<path class="st1" d="M37.17,1.81c1.77,0,3.54,0,5.31,0c0.22,0,0.36,0.13,0.5,0.26c3.18,2.93,6.36,5.85,9.53,8.78
		c0.11,0.11,0.33,0.17,0.24,0.42c-5.21-3.11-10.41-6.22-15.62-9.33C37.16,1.89,37.17,1.85,37.17,1.81z"/>
</g>
<g>
	<path class="st0" d="M137.05,44.5c0,1.56-0.04,3.12,0.02,4.67c0.02,0.66-0.19,0.83-0.81,0.77c-0.58-0.05-1.16-0.05-1.74,0
		c-0.55,0.04-0.66-0.19-0.66-0.69c0.02-2.75,0.01-5.51,0.01-8.26c0-1.12,0.49-1.51,1.59-1.62c1.46-0.14,2.41,0.44,3.2,1.64
		c1.07,1.62,2.29,3.14,3.41,4.72c0.3,0.43,0.44,0.39,0.72-0.01c1.27-1.76,2.57-3.5,3.86-5.24c0.73-0.98,2.42-1.51,3.52-1.03
		c0.48,0.2,0.8,0.64,0.8,1.19c0.01,2.96,0,5.91,0.01,8.87c0,0.36-0.1,0.5-0.47,0.48c-0.71-0.02-1.41-0.03-2.12,0
		c-0.46,0.02-0.61-0.12-0.6-0.59c0.03-1.39,0.01-2.78,0.01-4.17c0-0.24,0.07-0.49-0.11-0.81c-1.06,1.46-2.19,2.81-3.1,4.3
		c-1,1.64-3.35,1.6-4.31,0c-0.9-1.5-2.05-2.87-3.08-4.29C137.16,44.46,137.1,44.48,137.05,44.5z"/>
	<path class="st0" d="M77.22,49.86c-3.71,0-7.14,0.02-10.57-0.01c-1.46-0.01-2.5-1.1-2.53-2.57c-0.03-1.84-0.01-3.69,0.01-5.53
		c0.02-1.3,1.07-2.38,2.45-2.41c2.7-0.05,5.4-0.05,8.1,0c1.53,0.03,2.5,1.13,2.5,2.66c0.01,1.72,0,3.43,0,5.15
		c0,0.41,0,0.85-0.27,1.16C76.47,48.85,76.34,49.31,77.22,49.86z M74.01,46.28c0-1-0.02-2,0.01-3c0.02-0.59-0.24-0.82-0.8-0.82
		c-1.71,0.01-3.43,0-5.14,0c-0.51,0-0.81,0.2-0.8,0.76c0.01,0.93,0.02,1.87,0,2.8c-0.01,0.43,0.17,0.7,0.58,0.72
		c0.71,0.03,1.42,0.01,2.26,0.01c-0.59-0.69-1.09-1.26-1.7-1.97C70.49,44.92,72.6,44.14,74.01,46.28z"/>
	<path class="st0" d="M86.34,49.89c-1.21,0-2.42,0.02-3.63,0c-1.77-0.03-2.8-1.08-2.81-2.86c0-2.37,0.03-4.75,0.01-7.12
		c0-0.48,0.16-0.61,0.61-0.59c0.63,0.03,1.26,0.04,1.89,0c0.52-0.04,0.69,0.11,0.68,0.66c-0.03,1.92-0.01,3.84-0.01,5.76
		c0,0.9,0.1,1.02,0.97,1.02c1.51,0.01,3.03-0.01,4.54,0.01c0.67,0.01,0.95-0.22,0.94-0.93c-0.03-1.97,0-3.94-0.02-5.91
		c0-0.45,0.1-0.65,0.59-0.61c0.7,0.05,1.41,0.07,2.12,0.05c0.43-0.01,0.49,0.18,0.49,0.54c-0.01,2.42,0.02,4.85-0.02,7.27
		c-0.03,1.7-1.08,2.69-2.79,2.7C88.71,49.9,87.52,49.89,86.34,49.89z"/>
	<path class="st0" d="M123.63,43.29c-1.23,2.08-2.41,4.05-3.57,6.03c-0.25,0.44-0.53,0.66-1.06,0.63c-0.98-0.05-1.96-0.01-2.93-0.01
		c-0.14-0.27,0.07-0.41,0.16-0.56c1.78-2.99,3.63-5.94,5.32-8.98c0.71-1.28,3.43-1.24,4.06-0.13c1.8,3.15,3.69,6.25,5.55,9.38
		c0.04,0.06,0.05,0.13,0.11,0.29c-1.17,0-2.3-0.01-3.42,0c-0.4,0-0.48-0.32-0.63-0.57C126.03,47.38,124.86,45.38,123.63,43.29z"/>
	<path class="st0" d="M62.06,49.87c-1.23,0-2.33-0.02-3.44,0.01c-0.41,0.01-0.51-0.26-0.65-0.51c-1.19-2.02-2.38-4.04-3.62-6.14
		c-0.89,1.49-1.74,2.92-2.6,4.34c-0.45,0.75-0.75,1.79-1.42,2.17c-0.67,0.38-1.72,0.12-2.6,0.12c-0.32,0-0.79,0.16-0.92-0.09
		c-0.17-0.3,0.22-0.62,0.39-0.91c1.65-2.78,3.42-5.49,4.92-8.34c0.82-1.56,3.65-1.52,4.46,0.02C58.23,43.69,60.16,46.68,62.06,49.87
		z"/>
	<path class="st0" d="M107.25,49.89c-1.77,0-3.53-0.02-5.3,0.01c-0.54,0.01-0.67-0.16-0.67-0.68c0.04-3.08,0.06-6.16,0.05-9.24
		c0-0.54,0.2-0.63,0.66-0.61c0.6,0.03,1.21,0.04,1.82,0c0.52-0.04,0.69,0.11,0.68,0.66c-0.03,2,0.01,3.99-0.03,5.99
		c-0.01,0.6,0.16,0.77,0.76,0.76c2.45-0.03,4.9,0,7.35-0.03c0.6-0.01,0.88,0.12,0.81,0.78c-0.06,0.55-0.05,1.11,0,1.67
		c0.05,0.6-0.14,0.77-0.75,0.76c-1.79-0.04-3.58-0.01-5.37-0.01C107.25,49.92,107.25,49.91,107.25,49.89z"/>
	<path class="st0" d="M98.56,44.71c0,1.51-0.02,3.03,0.01,4.54c0.01,0.47-0.09,0.7-0.61,0.64c-0.82-0.09-1.9,0.35-2.39-0.18
		c-0.4-0.42-0.12-1.49-0.12-2.27c-0.01-2.47,0.01-4.95-0.01-7.42c-0.01-0.54,0.16-0.7,0.68-0.66c0.63,0.04,1.26,0.03,1.89,0
		c0.44-0.02,0.63,0.07,0.62,0.57c-0.03,1.59-0.01,3.18-0.01,4.77C98.59,44.71,98.57,44.71,98.56,44.71z"/>
</g>
</svg>
